<svg data-v-423bf9ae="" xmlns="http://www.w3.org/2000/svg" viewBox="0 0 435 107" class="iconLeftSlogan"><!----><!----><!----><g data-v-423bf9ae="" id="4cb9ceb9-8fc8-4e20-a73c-bf282593155b" fill="black" transform="matrix(5.469462036417144,0,0,5.469462036417144,96.45876319356148,-20.455788306779553)"><path d="M2.39 5.05L6.57 5.05L6.57 3.88L1.06 3.88L1.06 14.55L6.71 14.55L6.71 13.37L2.39 13.37L2.39 9.66L6.05 9.66L6.05 8.48L2.39 8.48ZM7.38 6.24L9.77 14.55L11.40 14.55L13.79 6.24L12.35 6.24L10.58 13.09L8.85 6.24ZM19.18 12.22C19.15 13.17 18.76 13.61 17.63 13.61C16.42 13.61 16.00 13.03 16.00 11.63L16.00 10.71L20.45 10.71L20.45 9.17C20.45 7.04 19.57 6.08 17.61 6.08C15.68 6.08 14.73 7.08 14.73 9.24L14.73 11.54C14.73 13.82 15.64 14.71 17.64 14.71C19.56 14.71 20.34 13.87 20.38 12.22ZM17.63 7.20C18.84 7.20 19.22 7.87 19.22 9.23L19.22 9.69L16.00 9.69L16.00 9.30C16.00 7.80 16.42 7.20 17.63 7.20ZM22.18 6.24L22.18 14.55L23.46 14.55L23.46 8.89C23.46 7.77 24.11 7.21 25.07 7.21C26.28 7.21 26.64 7.81 26.64 9.17L26.64 14.55L27.93 14.55L27.93 9.06C27.93 7.11 27.27 6.08 25.34 6.08C24.46 6.08 23.77 6.36 23.37 6.87L23.30 6.24ZM32.26 13.54C31.37 13.54 31.01 13.22 31.01 12.00L31.01 7.66L32.91 7.66L32.91 6.52L31.02 6.52L31.02 4.58L29.71 4.58L29.71 11.96C29.71 13.83 30.25 14.71 31.98 14.71C32.35 14.71 32.75 14.66 32.91 14.62L32.91 13.47C32.73 13.51 32.49 13.54 32.26 13.54ZM40.19 3.88L34.61 3.88L34.61 14.55L35.94 14.55L35.94 9.74L39.58 9.74L39.58 8.57L35.94 8.57L35.94 5.05L40.19 5.05ZM44.20 13.47C43.20 13.50 42.95 13.30 42.95 11.97L42.95 3.74L41.66 3.74L41.66 11.90C41.66 13.99 42.11 14.81 44.20 14.60ZM46.54 9.28C46.54 7.67 46.94 7.21 48.16 7.21C49.36 7.21 49.77 7.67 49.77 9.28L49.77 11.51C49.77 13.12 49.36 13.58 48.16 13.58C46.94 13.58 46.54 13.12 46.54 11.51ZM48.16 6.08C46.16 6.08 45.25 6.93 45.25 9.27L45.25 11.52C45.25 13.86 46.16 14.71 48.16 14.71C50.16 14.71 51.07 13.86 51.07 11.52L51.07 9.27C51.07 6.93 50.16 6.08 48.16 6.08ZM56.32 6.24L54.81 12.95L53.49 6.24L52.08 6.24L54.01 14.55L55.50 14.55L56.97 8.23L58.44 14.55L59.92 14.55L61.85 6.24L60.51 6.24L59.19 12.99L57.71 6.24Z"></path></g><!----><g data-v-423bf9ae="" id="4ec54efc-5d5f-4859-9bfb-b1736d06fea7" transform="matrix(1.0868111504448785,0,0,1.0868111504448785,-13.255261890115804,-0.23894260335429607)" stroke="none" fill="black"><g clip-rule="evenodd"><path d="M12.983 10.59l17.018 88.223-5.872-59.049 29.021-1.892-.054-9.883L64.549 1 53.622 18.977z"></path><path d="M59.389 54.548l5.16-53.541-8.74 39.716-19.612 1.045 1.57 20.462-7.766 36.583 12.057-39.899z"></path><path d="M62.8 67.182l.549-10.453-15.979 3.755-.032 11.797-17.337 26.532 21.68-27.616zM65.711 62.394l14.841-4.731 1.509-12.532-15.899 2.095zM72.07 44.502l10.988-1.417 1.581-10.278-8.079-.373L64.549 1l8.43 30.967z"></path><path d="M87.413 31.294l1.256-9.506-9.544-2.694L64.549 1l14.483 22.437-.422 7z"></path></g></g><!----><g data-v-423bf9ae="" id="c7fc47f0-f7bd-46df-b749-3ec3992ef629" fill="black" transform="matrix(2.4393879570450503,0,0,2.4393879570450503,99.67063073574278,51.82804818661024)"><path d="M2.39 5.05L6.57 5.05L6.57 3.88L1.06 3.88L1.06 14.55L6.71 14.55L6.71 13.37L2.39 13.37L2.39 9.66L6.05 9.66L6.05 8.48L2.39 8.48ZM8.41 6.24L8.41 14.55L9.70 14.55L9.70 8.89C9.70 7.77 10.35 7.21 11.31 7.21C12.52 7.21 12.88 7.81 12.88 9.17L12.88 14.55L14.17 14.55L14.17 9.06C14.17 7.11 13.51 6.08 11.58 6.08C10.70 6.08 10.01 6.36 9.60 6.87L9.53 6.24ZM18.49 13.54C17.61 13.54 17.25 13.22 17.25 12.00L17.25 7.66L19.15 7.66L19.15 6.52L17.26 6.52L17.26 4.58L15.95 4.58L15.95 11.96C15.95 13.83 16.49 14.71 18.21 14.71C18.59 14.71 18.98 14.66 19.15 14.62L19.15 13.47C18.97 13.51 18.73 13.54 18.49 13.54ZM24.98 12.22C24.95 13.17 24.56 13.61 23.42 13.61C22.22 13.61 21.80 13.03 21.80 11.63L21.80 10.71L26.25 10.71L26.25 9.17C26.25 7.04 25.37 6.08 23.41 6.08C21.48 6.08 20.52 7.08 20.52 9.24L20.52 11.54C20.52 13.82 21.43 14.71 23.44 14.71C25.35 14.71 26.14 13.87 26.18 12.22ZM23.42 7.20C24.64 7.20 25.02 7.87 25.02 9.23L25.02 9.69L21.80 9.69L21.80 9.30C21.80 7.80 22.22 7.20 23.42 7.20ZM27.97 6.24L27.97 14.55L29.26 14.55L29.26 9.38C29.26 8.02 30.07 7.41 31.09 7.41C31.30 7.41 31.46 7.42 31.61 7.45L31.61 6.12C31.50 6.10 31.35 6.09 31.21 6.09C30.28 6.09 29.54 6.62 29.20 7.22L29.09 6.24ZM35.31 13.54C34.43 13.54 34.06 13.22 34.06 12.00L34.06 7.66L35.97 7.66L35.97 6.52L34.08 6.52L34.08 4.58L32.76 4.58L32.76 11.96C32.76 13.83 33.31 14.71 35.03 14.71C35.41 14.71 35.80 14.66 35.97 14.62L35.97 13.47C35.78 13.51 35.55 13.54 35.31 13.54ZM41.92 14.55L43.06 14.55L43.06 8.83C43.06 6.79 42.07 6.08 40.38 6.08C38.49 6.08 37.58 6.90 37.58 8.79L38.75 8.79C38.75 7.53 39.31 7.14 40.32 7.14C41.37 7.14 41.83 7.67 41.83 8.90L41.83 9.93C41.44 9.87 40.87 9.83 40.49 9.83C38.26 9.83 37.32 10.64 37.32 12.38C37.32 13.94 38.26 14.71 39.76 14.71C40.64 14.71 41.43 14.43 41.87 13.78ZM41.83 11.80C41.83 13.03 40.99 13.65 40.04 13.65C39.09 13.65 38.61 13.19 38.61 12.26C38.61 11.28 39.12 10.81 40.53 10.81C40.87 10.81 41.45 10.85 41.83 10.91ZM46.21 6.24L44.93 6.24L44.93 14.55L46.21 14.55ZM46.23 3.35L44.91 3.35L44.91 4.70L46.23 4.70ZM48.20 6.24L48.20 14.55L49.49 14.55L49.49 8.89C49.49 7.77 50.13 7.21 51.10 7.21C52.30 7.21 52.67 7.81 52.67 9.17L52.67 14.55L53.96 14.55L53.96 9.06C53.96 7.11 53.30 6.08 51.37 6.08C50.48 6.08 49.80 6.36 49.39 6.87L49.32 6.24ZM61.68 14.55L63.01 14.55L63.01 9.94L66.23 3.88L64.83 3.88L62.38 8.85L59.95 3.88L58.48 3.88L61.68 9.93ZM67.59 9.28C67.59 7.67 68.00 7.21 69.22 7.21C70.42 7.21 70.83 7.67 70.83 9.28L70.83 11.51C70.83 13.12 70.42 13.58 69.22 13.58C68.00 13.58 67.59 13.12 67.59 11.51ZM69.22 6.08C67.21 6.08 66.30 6.93 66.30 9.27L66.30 11.52C66.30 13.86 67.21 14.71 69.22 14.71C71.22 14.71 72.13 13.86 72.13 11.52L72.13 9.27C72.13 6.93 71.22 6.08 69.22 6.08ZM79.51 14.55L79.51 6.24L78.22 6.24L78.22 11.90C78.22 13.02 77.59 13.58 76.62 13.58C75.42 13.58 75.08 12.98 75.08 11.62L75.08 6.24L73.79 6.24L73.79 11.73C73.79 13.68 74.38 14.71 76.26 14.71C77.17 14.71 77.90 14.43 78.30 13.92L78.39 14.55ZM81.49 6.24L81.49 14.55L82.78 14.55L82.78 9.38C82.78 8.02 83.59 7.41 84.62 7.41C84.83 7.41 84.98 7.42 85.13 7.45L85.13 6.12C85.02 6.10 84.87 6.09 84.73 6.09C83.80 6.09 83.06 6.62 82.73 7.22L82.61 6.24ZM95.27 13.34L91.31 13.34L91.31 3.88L89.98 3.88L89.98 14.55L95.27 14.55ZM98.01 6.24L96.73 6.24L96.73 14.55L98.01 14.55ZM98.03 3.35L96.71 3.35L96.71 4.70L98.03 4.70ZM101.29 6.38C101.29 5.12 101.71 4.68 102.89 4.68C103.12 4.68 103.33 4.70 103.50 4.73L103.50 3.65C103.28 3.61 103.01 3.58 102.70 3.58C100.80 3.58 100.00 4.41 100.00 6.55L100.00 14.55L101.29 14.55L101.29 7.64L103.26 7.64L103.26 6.51L101.29 6.51ZM108.82 12.22C108.79 13.17 108.40 13.61 107.27 13.61C106.06 13.61 105.64 13.03 105.64 11.63L105.64 10.71L110.10 10.71L110.10 9.17C110.10 7.04 109.21 6.08 107.25 6.08C105.32 6.08 104.37 7.08 104.37 9.24L104.37 11.54C104.37 13.82 105.28 14.71 107.28 14.71C109.20 14.71 109.98 13.87 110.03 12.22ZM107.27 7.20C108.49 7.20 108.86 7.87 108.86 9.23L108.86 9.69L105.64 9.69L105.64 9.30C105.64 7.80 106.06 7.20 107.27 7.20Z"></path></g></svg>