<svg data-v-423bf9ae="" xmlns="http://www.w3.org/2000/svg" viewBox="0 0 332.48858133689833 60" class="font"><!----><!----><!----><g data-v-423bf9ae="" id="9121e08b-842c-402b-b385-97fb2909755b" fill="black" transform="matrix(5.469462036417144,0,0,5.469462036417144,-5.797630239055707,-20.455788306779553)"><path d="M2.39 5.05L6.57 5.05L6.57 3.88L1.06 3.88L1.06 14.55L6.71 14.55L6.71 13.37L2.39 13.37L2.39 9.66L6.05 9.66L6.05 8.48L2.39 8.48ZM7.38 6.24L9.77 14.55L11.40 14.55L13.79 6.24L12.35 6.24L10.58 13.09L8.85 6.24ZM19.18 12.22C19.15 13.17 18.76 13.61 17.63 13.61C16.42 13.61 16.00 13.03 16.00 11.63L16.00 10.71L20.45 10.71L20.45 9.17C20.45 7.04 19.57 6.08 17.61 6.08C15.68 6.08 14.73 7.08 14.73 9.24L14.73 11.54C14.73 13.82 15.64 14.71 17.64 14.71C19.56 14.71 20.34 13.87 20.38 12.22ZM17.63 7.20C18.84 7.20 19.22 7.87 19.22 9.23L19.22 9.69L16.00 9.69L16.00 9.30C16.00 7.80 16.42 7.20 17.63 7.20ZM22.18 6.24L22.18 14.55L23.46 14.55L23.46 8.89C23.46 7.77 24.11 7.21 25.07 7.21C26.28 7.21 26.64 7.81 26.64 9.17L26.64 14.55L27.93 14.55L27.93 9.06C27.93 7.11 27.27 6.08 25.34 6.08C24.46 6.08 23.77 6.36 23.37 6.87L23.30 6.24ZM32.26 13.54C31.37 13.54 31.01 13.22 31.01 12.00L31.01 7.66L32.91 7.66L32.91 6.52L31.02 6.52L31.02 4.58L29.71 4.58L29.71 11.96C29.71 13.83 30.25 14.71 31.98 14.71C32.35 14.71 32.75 14.66 32.91 14.62L32.91 13.47C32.73 13.51 32.49 13.54 32.26 13.54ZM40.19 3.88L34.61 3.88L34.61 14.55L35.94 14.55L35.94 9.74L39.58 9.74L39.58 8.57L35.94 8.57L35.94 5.05L40.19 5.05ZM44.20 13.47C43.20 13.50 42.95 13.30 42.95 11.97L42.95 3.74L41.66 3.74L41.66 11.90C41.66 13.99 42.11 14.81 44.20 14.60ZM46.54 9.28C46.54 7.67 46.94 7.21 48.16 7.21C49.36 7.21 49.77 7.67 49.77 9.28L49.77 11.51C49.77 13.12 49.36 13.58 48.16 13.58C46.94 13.58 46.54 13.12 46.54 11.51ZM48.16 6.08C46.16 6.08 45.25 6.93 45.25 9.27L45.25 11.52C45.25 13.86 46.16 14.71 48.16 14.71C50.16 14.71 51.07 13.86 51.07 11.52L51.07 9.27C51.07 6.93 50.16 6.08 48.16 6.08ZM56.32 6.24L54.81 12.95L53.49 6.24L52.08 6.24L54.01 14.55L55.50 14.55L56.97 8.23L58.44 14.55L59.92 14.55L61.85 6.24L60.51 6.24L59.19 12.99L57.71 6.24Z"></path></g><!----><!----></svg>